<svg xmlns="http://www.w3.org/2000/svg" xmlns:xlink="http://www.w3.org/1999/xlink" aria-hidden="true" role="img" class="iconify iconify--logos" width="35.93" height="32" preserveAspectRatio="xMidYMid meet" viewBox="0 0 256 228"><path fill="#00D8FF" d="M210.483 73.824a171.49 171.49 0 0 0-11.74-2.597c.465-1.9.893-3.777 1.273-5.621c6.238-30.281 2.16-54.676-11.769-62.708c-13.355-7.7-35.196.329-57.254 19.526a171.23 171.23 0 0 0-6.375 5.848a155.866 155.866 0 0 0-4.241-3.896C98.088 1.218 75.13-6.495 61.338 1.564C47.923 9.398 44.03 32.58 49.743 61.636a170.974 170.974 0 0 0 1.898 8.516a145.785 145.785 0 0 0-9.994 2.123C15.819 80.492 0 95.893 0 113.668c0 18.582 17.171 35.24 43.581 45.128a145.687 145.687 0 0 0 4.16 8.232a170.758 170.758 0 0 0-2.465 9.208c-5.713 29.056-1.82 52.238 11.595 60.072c13.792 8.059 36.75 1.346 58.409-18.12a155.866 155.866 0 0 0 4.241-3.896a171.23 171.23 0 0 0 6.375 5.848c22.058 19.197 43.899 27.226 57.254 19.526c13.929-8.032 18.007-32.427 11.77-62.708a145.869 145.869 0 0 0-1.274-5.621a171.49 171.49 0 0 0 11.74-2.597c27.695-10.424 46.22-27.732 46.22-47.491c0-19.76-18.525-37.068-46.22-47.492ZM131.189 14.665c15.023 13.058 28.994 28.978 40.608 46.691a156.255 156.255 0 0 0-40.608 0a156.255 156.255 0 0 0-40.608 0c11.614-17.713 25.585-33.633 40.608-46.69Zm-69.85 2.722c9.536-1.745 20.467-1.214 32.12 1.582a171.583 171.583 0 0 0-15.568 12.953a145.836 145.836 0 0 0-11.802-11.537a134.062 134.062 0 0 0-4.75-2.998Zm-8.402 27.49c2.37 3.153 4.9 6.424 7.575 9.798a171.396 171.396 0 0 0-9.147 14.09a156.19 156.19 0 0 0-5.88-14.713a145.936 145.936 0 0 1 7.452-9.175Zm-5.836 33.772a156.28 156.28 0 0 1 3.55-9.73c8.22.464 16.698 1.545 25.344 3.262a145.785 145.785 0 0 0-3.082 10.39a171.846 171.846 0 0 0-25.812-3.922Zm97.123 134.567a145.836 145.836 0 0 0 11.802-11.537a171.583 171.583 0 0 0 15.568 12.953c-11.653 2.796-22.584 3.327-32.12 1.582a134.062 134.062 0 0 0 4.75-2.998Zm-83.215-20.43a171.396 171.396 0 0 0 9.147-14.09a145.936 145.936 0 0 1-7.452-9.175a145.785 145.785 0 0 0-7.575 9.798a156.19 156.19 0 0 0 5.88 14.713Zm-20.089-38.444a171.846 171.846 0 0 0 25.812-3.922a156.28 156.28 0 0 1-3.55-9.73a145.785 145.785 0 0 0-25.344 3.262a156.255 156.255 0 0 0 3.082 10.39Zm17.864-76.519a145.785 145.785 0 0 0 25.344 3.262a156.28 156.28 0 0 1 3.55-9.73a171.846 171.846 0 0 0-25.812-3.922a156.255 156.255 0 0 0-3.082 10.39Zm64.934-25.81a145.836 145.836 0 0 1 7.452-9.175a145.785 145.785 0 0 0 7.575 9.798a171.396 171.396 0 0 0-9.147 14.09a156.19 156.19 0 0 0-5.88-14.713Zm59.363 141.702c9.536 1.745 20.467 1.214 32.12-1.582a134.062 134.062 0 0 0-4.75-2.998a145.836 145.836 0 0 0-11.802 11.537a171.583 171.583 0 0 0-15.568-12.953Zm22.248-52.79a156.255 156.255 0 0 0 3.082-10.39a145.785 145.785 0 0 0 25.344-3.262a156.28 156.28 0 0 1-3.55 9.73a171.846 171.846 0 0 0-25.812 3.922Zm5.836-33.772a145.936 145.936 0 0 1 7.452 9.175a156.19 156.19 0 0 0 5.88 14.713a171.396 171.396 0 0 0-9.147-14.09a145.785 145.785 0 0 0-4.185-9.798Zm5.836-23.867a134.062 134.062 0 0 0 4.75-2.998c9.536-1.745 20.467-1.214 32.12 1.582a171.583 171.583 0 0 0-15.568-12.953a145.836 145.836 0 0 0-11.802 11.537a134.062 134.062 0 0 0-9.5 2.832Zm-152.58 99.004c-12.768-11.1-23.152-24.49-30.432-39.202a171.846 171.846 0 0 1-5.836-12.953c8.22.464 16.698 1.545 25.344 3.262a156.19 156.19 0 0 1 10.924 48.893Zm-5.836-149.402a156.19 156.19 0 0 0-10.924 48.893a145.785 145.785 0 0 0-25.344 3.262a171.846 171.846 0 0 1 5.836-12.953c7.28-14.712 17.664-28.102 30.432-39.202Zm7.452 9.798a156.255 156.255 0 0 1 3.082 10.39a171.846 171.846 0 0 0-25.812 3.922a156.28 156.28 0 0 1 3.55 9.73c8.646-1.717 17.124-2.798 25.344-3.262a145.785 145.785 0 0 0-6.164-20.78Zm133.04 139.604c7.28 14.712 17.664 28.102 30.432 39.202a156.19 156.19 0 0 0 10.924-48.893a145.785 145.785 0 0 0-25.344-3.262a171.846 171.846 0 0 1-5.836 12.953Zm-5.836-149.402c12.768 11.1 23.152 24.49 30.432 39.202a171.846 171.846 0 0 1 5.836 12.953a145.785 145.785 0 0 0-25.344-3.262a156.19 156.19 0 0 0-10.924-48.893Zm6.164 20.78c8.646 1.717 17.124 2.798 25.344 3.262a156.28 156.28 0 0 1 3.55-9.73a171.846 171.846 0 0 0-25.812-3.922a156.255 156.255 0 0 1-3.082 10.39Zm-127.204 8.232a171.49 171.49 0 0 1 11.74 2.597c27.695 10.424 46.22 27.732 46.22 47.492s-18.525 37.068-46.22 47.492a171.49 171.49 0 0 1-11.74 2.597a145.869 145.869 0 0 1 1.274 5.621c6.237 30.281 2.16 54.676-11.77 62.708c-9.536 5.502-22.584 5.033-36.055-1.007c15.023-13.058 28.994-28.978 40.608-46.691a156.255 156.255 0 0 1 40.608 0c11.614 17.713 25.585 33.633 40.608 46.69c-13.471 6.04-26.519 6.509-36.055 1.007c-13.929-8.032-18.007-32.427-11.77-62.708a145.785 145.785 0 0 1-1.274-5.621a171.49 171.49 0 0 1-11.74-2.597c-27.695-10.424-46.22-27.732-46.22-47.491s18.525-37.068 46.22-47.492Z"></path></svg>
